#!OML:ASF H:\Terrain\Patient Classification 1\PLAYGROUND\JustinFriday\JustinFriday.ASF
:FULLY-SPECIFIED
:DEGREES
134
root 9.5222 17.8672 -18.0763 4.97092 -2.38582 -5.56002
lowerback 14.6777 0.720481 2.80032
upperback 2.83914 1.58399 3.53321
thorax -5.24574 0.752211 1.84575
lowerneck -6.74715 -3.62667 -7.01884
upperneck 0.029161 -4.45959 7.24275
head 1.5651 -2.11271 3.45498
rclavicle 7.35503e-015 1.39149e-014
rhumerus -19.3388 0.2884 -80.7906
rradius 106.164
rwrist -15.0172
rhand -21.8901 -6.44915
rfingers 7.12502
rthumb 4.51494 -36.381
lclavicle 7.35503e-015 1.39149e-014
lhumerus -25.9464 -2.88575 79.3061
lradius 107.99
lwrist 9.90196
lhand -34.3997 -21.4625
lfingers 7.12502
lthumb -7.56537 8.38218
rfemur -13.4607 0.00685243 24.2855
rtibia 31.5493
rfoot -15.3056 -9.3909
rtoes 6.37777
lfemur -14.215 2.58638 -11.1183
ltibia 32.1246
lfoot -17.8444 1.2276
ltoes -4.10857
135
root 9.52098 17.8712 -18.0749 5.06248 -2.5447 -5.64247
lowerback 14.7602 0.697015 2.72194
upperback 2.83823 1.55255 3.65975
thorax -5.29729 0.738263 2.02958
lowerneck -6.70844 -3.54274 -7.18782
upperneck -0.157278 -4.32722 7.18858
head 1.48987 -2.04876 3.47499
rclavicle -1.68967e-014 -4.25399e-014
rhumerus -19.2351 0.573925 -80.7799
rradius 106.201
rwrist -14.9174
rhand -22.2591 -6.11361
rfingers 7.12502
rthumb 4.1586 -36.0528
lclavicle -1.68967e-014 -4.25399e-014
lhumerus -26.0239 -2.64749 79.3466
lradius 107.955
lwrist 9.9745
lhand -34.5222 -21.634
lfingers 7.12502
lthumb -7.68366 8.20638
rfemur -13.602 0.21514 24.3616
rtibia 31.6233
rfoot -15.3396 -9.36123
rtoes 6.85562
lfemur -14.1789 2.69128 -11.0256
ltibia 31.9621
lfoot -17.7929 1.2563
ltoes -3.65049
136
root 9.52324 17.876 -18.069 5.09704 -2.50204 -5.53874
lowerback 14.8724 0.653399 2.62666
upperback 2.83292 1.487 3.67128
thorax -5.36593 0.707254 2.10755
lowerneck -6.73064 -3.53367 -7.18389
upperneck -0.206498 -4.30855 7.05128
head 1.47135 -2.0414 3.42686
rclavicle 3.18055e-015 -1.03368e-014
rhumerus -19.1071 0.651427 -80.7791
rradius 106.135
rwrist -14.8779
rhand -22.4277 -6.11974
rfingers 7.12502
rthumb 3.99577 -36.062
lclavicle 3.18055e-015 -1.03368e-014
lhumerus -26.0289 -2.56109 79.3884
lradius 107.896
lwrist 10.0863
lhand -34.5761 -21.486
lfingers 7.12502
lthumb -7.73567 8.35247
rfemur -13.6392 0.0855441 24.2317
rtibia 31.6657
rfoot -15.374 -9.23554
rtoes 7.12568
lfemur -14.1481 2.61686 -11.1496
ltibia 31.8778
lfoot -17.7917 1.28245
ltoes -3.52062
137
root 9.53045 17.8781 -18.066 5.08067 -2.3573 -5.29654
lowerback 14.9127 0.5696 2.5032
upperback 2.90019 1.35297 3.61877
thorax -5.31544 0.643553 2.14712
lowerneck -6.79863 -3.54947 -7.02257
upperneck -0.160762 -4.33218 6.74595
head 1.48477 -2.05707 3.28782
rclavicle -1.39149e-015 1.74931e-014
rhumerus -18.8949 0.742779 -80.7607
rradius 106.079
rwrist -14.9321
rhand -22.6373 -5.92718
rfingers 7.12502
rthumb 3.79336 -35.8732
lclavicle -1.39149e-015 1.74931e-014
lhumerus -25.9243 -2.42065 79.4182
lradius 107.752
lwrist 10.091
lhand -34.6345 -21.2107
lfingers 7.12502
lthumb -7.79202 8.62574
rfemur -13.614 -0.232698 23.9396
rtibia 31.6778
rfoot -15.2522 -9.11363
rtoes 6.85849
lfemur -14.1417 2.46153 -11.4554
ltibia 31.858
lfoot -17.7479 1.35028
ltoes -3.65649
138
root 9.5368 17.8784 -18.0696 5.1502 -2.3197 -5.38843
lowerback 14.8746 0.507447 2.64992
upperback 3.03132 1.28853 3.67563
thorax -5.15226 0.610859 2.13661
lowerneck -6.94239 -3.55206 -7.03522
upperneck -0.227952 -4.3213 6.66283
head 1.4853 -2.0508 3.2604
rclavicle -1.2921e-014 -4.05521e-014
rhumerus -18.6948 0.85159 -80.7225
rradius 106.171
rwrist -15.0666
rhand -22.5589 -5.81667
rfingers 7.12502
rthumb 3.86908 -35.7613
lclavicle -1.2921e-014 -4.05521e-014
lhumerus -25.8829 -2.19988 79.4289
lradius 107.742
lwrist 10.0474
lhand -34.3397 -20.9393
lfingers 7.12502
lthumb -7.50749 8.90747
rfemur -13.6888 -0.281991 24.0181
rtibia 31.6878
rfoot -15.2197 -9.07659
rtoes 6.65812
lfemur -14.2291 2.4531 -11.3906
ltibia 31.8479
lfoot -17.6571 1.34439
ltoes -3.38284
139
root 9.53943 17.879 -18.0679 5.24312 -2.42781 -5.53368
lowerback 14.8214 0.515326 2.79277
upperback 3.14948 1.31428 3.72083
thorax -4.99629 0.622532 2.09879
lowerneck -6.84521 -3.52928 -7.17961
upperneck -0.50741 -4.28004 6.8584
head 1.38433 -2.02846 3.35888
rclavicle -3.77691e-015 2.78299e-015
rhumerus -18.5508 0.853974 -80.7088
rradius 106.283
rwrist -15.1705
rhand -22.047 -6.07715
rfingers 7.12502
rthumb 4.36341 -36.0122
lclavicle -3.77691e-015 2.78299e-015
lhumerus -25.7685 -2.14215 79.3997
lradius 107.739
lwrist 10.089
lhand -34.0777 -20.7483
lfingers 7.12502
lthumb -7.25455 9.10735
rfemur -13.7855 -0.240541 24.136
rtibia 31.7284
rfoot -15.3508 -8.93952
rtoes 6.86162
lfemur -14.2845 2.54283 -11.257
ltibia 31.8465
lfoot -17.6761 1.29952
ltoes -3.18234
140
root 9.53937 17.8816 -18.0647 5.32243 -2.66707 -5.38898
lowerback 14.9566 0.587463 2.54287
upperback 3.14193 1.37609 3.69076
thorax -5.08435 0.655348 2.19598
lowerneck -6.64933 -3.52998 -7.21069
upperneck -0.704804 -4.28485 6.91074
head 1.2877 -2.03318 3.38508
rclavicle 1.98785e-015 1.39149e-014
rhumerus -18.6105 0.918586 -80.737
rradius 106.4
rwrist -15.2468
rhand -21.7045 -6.37367
rfingers 7.12502
rthumb 4.69415 -36.3017
lclavicle 1.98785e-015 1.39149e-014
lhumerus -25.6698 -2.16887 79.3761
lradius 107.607
lwrist 10.1612
lhand -34.4307 -20.9134
lfingers 7.12502
lthumb -7.59527 8.93021
rfemur -13.935 -0.13015 23.9288
rtibia 31.8094
rfoot -15.3629 -8.75215
rtoes 7.13262
lfemur -14.3285 2.62471 -11.4438
ltibia 31.8774
lfoot -17.741 1.39718
ltoes -3.11609
141
root 9.54078 17.883 -18.0679 5.38421 -2.83554 -5.23833
lowerback 15.1933 0.641922 2.28475
upperback 3.12476 1.41672 3.64422
thorax -5.23758 0.6777 2.28384
lowerneck -6.6676 -3.53051 -7.0932
upperneck -0.716013 -4.29172 6.8482
head 1.28218 -2.03733 3.34022
rclavicle -2.5842e-014 -2.3059e-014
rhumerus -18.7285 0.962628 -80.7801
rradius 106.492
rwrist -15.3001
rhand -21.789 -6.30887
rfingers 7.12502
rthumb 4.61253 -36.2386
lclavicle -2.5842e-014 -2.3059e-014
lhumerus -25.7263 -2.21454 79.3201
lradius 107.447
lwrist 10.2611
lhand -34.6992 -21.3028
lfingers 7.12502
lthumb -7.85448 8.53131
rfemur -14.14 -0.0876531 23.7333
rtibia 31.9675
rfoot -15.3386 -8.56258
rtoes 7.11729
lfemur -14.3971 2.65399 -11.6324
ltibia 31.895
lfoot -17.7353 1.49864
ltoes -3.1009
142
root 9.54634 17.8811 -18.0756 5.46059 -2.83841 -5.2726
lowerback 15.3298 0.649778 2.35399
upperback 3.21656 1.43856 3.62689
thorax -5.2128 0.68709 2.22114
lowerneck -7.33529 -3.6348 -6.8362
upperneck -0.266574 -4.42183 6.59327
head 1.54205 -2.09588 3.18956
rclavicle -1.33186e-014 1.70955e-014
rhumerus -18.5526 0.883015 -80.7164
rradius 106.435
rwrist -15.4096
rhand -22.1011 -5.93695
rfingers 7.12502
rthumb 4.3111 -35.8731
lclavicle -1.33186e-014 1.70955e-014
lhumerus -25.7494 -2.30974 79.3006
lradius 107.398
lwrist 10.3617
lhand -34.6942 -21.5848
lfingers 7.12502
lthumb -7.84964 8.24947
rfemur -14.3851 -0.196391 23.7551
rtibia 32.2253
rfoot -15.3304 -8.48073
rtoes 6.81734
lfemur -14.5266 2.65146 -11.6163
ltibia 31.9126
lfoot -17.666 1.53217
ltoes -3.3763
143
root 9.55219 17.885 -18.0844 5.68188 -2.86232 -5.36529
lowerback 15.4592 0.698754 2.50087
upperback 3.21116 1.533 3.63457
thorax -5.28744 0.730679 2.12683
lowerneck -8.03978 -3.80614 -6.55791
upperneck 0.201295 -4.64152 6.26524
head 1.81798 -2.2006 3.00581
rclavicle -1.72943e-014 -3.81667e-014
rhumerus -18.31 0.736152 -80.6105
rradius 106.314
rwrist -15.591
rhand -22.2151 -5.84812
rfingers 7.12502
rthumb 4.20108 -35.7864
lclavicle -1.72943e-014 -3.81667e-014
lhumerus -25.7329 -2.51593 79.3793
lradius 107.365
lwrist 10.201
lhand -35.1465 -21.8683
lfingers 7.12502
lthumb -8.28614 7.94923
rfemur -14.8129 -0.218945 23.8465
rtibia 32.5463
rfoot -15.2486 -8.52315
rtoes 6.32971
lfemur -14.8414 2.61913 -11.5455
ltibia 31.9923
lfoot -17.501 1.70028
ltoes -3.71457
144
root 9.55851 17.8893 -18.0948 5.94198 -2.88791 -5.29501
lowerback 15.6918 0.697155 2.45921
upperback 3.08415 1.53995 3.60906
thorax -5.54968 0.732936 2.12058
lowerneck -7.54865 -3.70128 -6.7197
upperneck -0.351594 -4.50341 6.52492
head 1.55223 -2.1344 3.13766
rclavicle -5.56597e-015 5.96354e-015
rhumerus -18.3274 0.76298 -80.6437
rradius 106.264
rwrist -15.5506
rhand -22.1767 -6.07022
rfingers 7.12502
rthumb 4.23818 -36.0078
lclavicle -5.56597e-015 5.96354e-015
lhumerus -25.6066 -2.67484 79.3343
lradius 107.081
lwrist 10.0273
lhand -35.612 -22.0553
lfingers 7.12502
lthumb -8.7354 7.74392
rfemur -15.2984 -0.296947 23.7512
rtibia 32.9058
rfoot -15.2353 -8.51235
rtoes 5.52999
lfemur -15.2352 2.53665 -11.6603
ltibia 32.1376
lfoot -17.3429 1.86064
ltoes -3.96671
